<?xml version="1.0" encoding="UTF-8"?>
<svg id="Layer_1" data-name="Layer 1" xmlns="http://www.w3.org/2000/svg" viewBox="0 0 18 14">
  <defs>
    <style>
      .cls-1 {
        fill: #fff;
        stroke-width: 0px;
      }
    </style>
  </defs>
  <path class="cls-1" d="m11.52,13.78s4.5-4.5,6.26-6.26c.15-.15.22-.34.22-.53s-.07-.38-.22-.53C16.03,4.71,11.54.22,11.54.22c-.14-.14-.33-.22-.52-.22-.19,0-.39.07-.53.22-.29.29-.29.77,0,1.06l4.97,4.97H.75c-.41,0-.75.34-.75.75s.34.75.75.75h14.69s-4.98,4.98-4.98,4.98c-.29.29-.29.76,0,1.05.15.15.34.22.53.22.19,0,.38-.07.52-.22Z"/>
</svg>