<?xml version="1.0" encoding="UTF-8"?>
<svg id="down-caret" data-name="Layer 1" xmlns="http://www.w3.org/2000/svg" viewBox="0 0 14 7.75" alt="Down arrow" width="12">
  <defs>
    <style>
      .cls-1 {
        fill: #fff;
        stroke-width: 0px;
      }
    </style>
  </defs>
  <path class="cls-1" d="m7,6.09L1.28.22C.99-.07.51-.07.22.22.07.37,0,.56,0,.76,0,.94.07,1.13.22,1.28.22,1.28,4.72,5.78,6.47,7.53c.15.15.34.22.53.22s.38-.07.53-.22c1.75-1.75,6.25-6.24,6.25-6.24.14-.14.22-.33.22-.52,0-.19-.07-.39-.22-.53-.29-.29-.77-.29-1.06,0l-5.72,5.86Z"/>
</svg>